<svg xmlns="http://www.w3.org/2000/svg" xmlns:xlink="http://www.w3.org/1999/xlink" width="96" zoomAndPan="magnify" viewBox="0 0 72 72" height="96" preserveAspectRatio="xMidYMid meet" version="1.0"><rect x="-7.2" width="86.4" fill="#ffffff" y="-7.2" height="86.4" fill-opacity="1"/><rect x="-7.2" width="86.4" fill="#ffffff" y="-7.2" height="86.4" fill-opacity="1"/><rect x="-7.2" width="86.4" fill="#ffffff" y="-7.2" height="86.4" fill-opacity="1"/><path stroke-linecap="butt" transform="matrix(2.482759, 0, 0, 2.482759, 0, 0.000002)" fill-opacity="1" fill="#ffffff" fill-rule="nonzero" stroke-linejoin="miter" d="M 1.999729 2.500054 L 8.999566 2.500054 M 10.999295 2.500054 L 13.000597 2.500054 M 13.999675 2.500054 L 15.999404 2.500054 M 17.000055 2.500054 L 18.999784 2.500054 M 20.000435 2.500054 L 27.000272 2.500054 M 1.999729 3.500705 L 3.00038 3.500705 M 8.000489 3.500705 L 8.999566 3.500705 M 11.999946 3.500705 L 13.000597 3.500705 M 13.999675 3.500705 L 15.000326 3.500705 M 15.999404 3.500705 L 18.000706 3.500705 M 20.000435 3.500705 L 20.999512 3.500705 M 25.999621 3.500705 L 27.000272 3.500705 M 1.999729 4.499782 L 3.00038 4.499782 M 3.999458 4.499782 L 6.999837 4.499782 M 8.000489 4.499782 L 8.999566 4.499782 M 10.000217 4.499782 L 15.000326 4.499782 M 15.999404 4.499782 L 18.999784 4.499782 M 20.000435 4.499782 L 20.999512 4.499782 M 22.000163 4.499782 L 25.000543 4.499782 M 25.999621 4.499782 L 27.000272 4.499782 M 1.999729 5.500433 L 3.00038 5.500433 M 3.999458 5.500433 L 6.999837 5.500433 M 8.000489 5.500433 L 8.999566 5.500433 M 10.000217 5.500433 L 11.999946 5.500433 M 13.000597 5.500433 L 13.999675 5.500433 M 15.999404 5.500433 L 18.999784 5.500433 M 20.000435 5.500433 L 20.999512 5.500433 M 22.000163 5.500433 L 25.000543 5.500433 M 25.999621 5.500433 L 27.000272 5.500433 M 1.999729 6.499511 L 3.00038 6.499511 M 3.999458 6.499511 L 6.999837 6.499511 M 8.000489 6.499511 L 8.999566 6.499511 M 10.000217 6.499511 L 10.999295 6.499511 M 11.999946 6.499511 L 13.999675 6.499511 M 15.000326 6.499511 L 15.999404 6.499511 M 18.000706 6.499511 L 18.999784 6.499511 M 20.000435 6.499511 L 20.999512 6.499511 M 22.000163 6.499511 L 25.000543 6.499511 M 25.999621 6.499511 L 27.000272 6.499511 M 1.999729 7.500162 L 3.00038 7.500162 M 8.000489 7.500162 L 8.999566 7.500162 M 10.000217 7.500162 L 11.999946 7.500162 M 17.000055 7.500162 L 18.999784 7.500162 M 20.000435 7.500162 L 20.999512 7.500162 M 25.999621 7.500162 L 27.000272 7.500162 M 1.999729 8.49924 L 8.999566 8.49924 M 10.000217 8.49924 L 10.999295 8.49924 M 11.999946 8.49924 L 13.000597 8.49924 M 13.999675 8.49924 L 15.000326 8.49924 M 15.999404 8.49924 L 17.000055 8.49924 M 18.000706 8.49924 L 18.999784 8.49924 M 20.000435 8.49924 L 27.000272 8.49924 M 10.000217 9.499891 L 11.999946 9.499891 M 13.999675 9.499891 L 15.000326 9.499891 M 18.000706 9.499891 L 18.999784 9.499891 M 1.999729 10.500542 L 3.00038 10.500542 M 3.999458 10.500542 L 8.999566 10.500542 M 15.000326 10.500542 L 17.000055 10.500542 M 20.000435 10.500542 L 25.000543 10.500542 M 1.999729 11.49962 L 3.00038 11.49962 M 5.000109 11.49962 L 6.999837 11.49962 M 11.999946 11.49962 L 13.999675 11.49962 M 15.000326 11.49962 L 15.999404 11.49962 M 18.999784 11.49962 L 20.000435 11.49962 M 20.999512 11.49962 L 22.000163 11.49962 M 25.000543 11.49962 L 25.999621 11.49962 M 1.999729 12.500271 L 13.000597 12.500271 M 13.999675 12.500271 L 15.000326 12.500271 M 17.000055 12.500271 L 18.999784 12.500271 M 20.000435 12.500271 L 22.000163 12.500271 M 22.999241 12.500271 L 23.999892 12.500271 M 25.000543 12.500271 L 27.000272 12.500271 M 3.999458 13.499349 L 6.00076 13.499349 M 8.999566 13.499349 L 10.000217 13.499349 M 18.000706 13.499349 L 18.999784 13.499349 M 25.999621 13.499349 L 27.000272 13.499349 M 1.999729 14.5 L 3.999458 14.5 M 5.000109 14.5 L 6.00076 14.5 M 6.999837 14.5 L 8.999566 14.5 M 10.000217 14.5 L 10.999295 14.5 M 13.999675 14.5 L 15.999404 14.5 M 18.999784 14.5 L 22.999241 14.5 M 23.999892 14.5 L 27.000272 14.5 M 1.999729 15.500651 L 3.00038 15.500651 M 6.999837 15.500651 L 8.000489 15.500651 M 8.999566 15.500651 L 10.000217 15.500651 M 13.999675 15.500651 L 17.000055 15.500651 M 18.000706 15.500651 L 18.999784 15.500651 M 20.999512 15.500651 L 22.000163 15.500651 M 22.999241 15.500651 L 23.999892 15.500651 M 25.000543 15.500651 L 25.999621 15.500651 M 1.999729 16.499728 L 3.00038 16.499728 M 5.000109 16.499728 L 10.999295 16.499728 M 17.000055 16.499728 L 23.999892 16.499728 M 25.000543 16.499728 L 27.000272 16.499728 M 1.999729 17.50038 L 3.00038 17.50038 M 3.999458 17.50038 L 6.00076 17.50038 M 6.999837 17.50038 L 8.000489 17.50038 M 11.999946 17.50038 L 13.999675 17.50038 M 17.000055 17.50038 L 18.000706 17.50038 M 20.999512 17.50038 L 22.999241 17.50038 M 25.999621 17.50038 L 27.000272 17.50038 M 1.999729 18.499457 L 3.00038 18.499457 M 5.000109 18.499457 L 6.00076 18.499457 M 6.999837 18.499457 L 8.999566 18.499457 M 10.999295 18.499457 L 11.999946 18.499457 M 15.000326 18.499457 L 17.000055 18.499457 M 18.000706 18.499457 L 22.999241 18.499457 M 23.999892 18.499457 L 25.000543 18.499457 M 10.000217 19.500108 L 11.999946 19.500108 M 13.000597 19.500108 L 13.999675 19.500108 M 15.999404 19.500108 L 18.999784 19.500108 M 22.000163 19.500108 L 23.999892 19.500108 M 1.999729 20.500759 L 8.999566 20.500759 M 11.999946 20.500759 L 13.000597 20.500759 M 15.000326 20.500759 L 17.000055 20.500759 M 18.000706 20.500759 L 18.999784 20.500759 M 20.000435 20.500759 L 20.999512 20.500759 M 22.000163 20.500759 L 22.999241 20.500759 M 23.999892 20.500759 L 27.000272 20.500759 M 1.999729 21.499837 L 3.00038 21.499837 M 8.000489 21.499837 L 8.999566 21.499837 M 10.000217 21.499837 L 10.999295 21.499837 M 11.999946 21.499837 L 15.000326 21.499837 M 15.999404 21.499837 L 17.000055 21.499837 M 18.000706 21.499837 L 18.999784 21.499837 M 22.000163 21.499837 L 23.999892 21.499837 M 1.999729 22.500488 L 3.00038 22.500488 M 3.999458 22.500488 L 6.999837 22.500488 M 8.000489 22.500488 L 8.999566 22.500488 M 10.000217 22.500488 L 11.999946 22.500488 M 15.000326 22.500488 L 15.999404 22.500488 M 17.000055 22.500488 L 22.999241 22.500488 M 23.999892 22.500488 L 25.000543 22.500488 M 1.999729 23.499566 L 3.00038 23.499566 M 3.999458 23.499566 L 6.999837 23.499566 M 8.000489 23.499566 L 8.999566 23.499566 M 10.000217 23.499566 L 11.999946 23.499566 M 13.000597 23.499566 L 13.999675 23.499566 M 15.999404 23.499566 L 20.999512 23.499566 M 22.000163 23.499566 L 27.000272 23.499566 M 1.999729 24.500217 L 3.00038 24.500217 M 3.999458 24.500217 L 6.999837 24.500217 M 8.000489 24.500217 L 8.999566 24.500217 M 10.000217 24.500217 L 13.000597 24.500217 M 15.000326 24.500217 L 15.999404 24.500217 M 18.000706 24.500217 L 20.000435 24.500217 M 22.999241 24.500217 L 25.000543 24.500217 M 25.999621 24.500217 L 27.000272 24.500217 M 1.999729 25.499295 L 3.00038 25.499295 M 8.000489 25.499295 L 8.999566 25.499295 M 13.000597 25.499295 L 13.999675 25.499295 M 17.000055 25.499295 L 18.999784 25.499295 M 20.999512 25.499295 L 23.999892 25.499295 M 25.999621 25.499295 L 27.000272 25.499295 M 1.999729 26.499946 L 8.999566 26.499946 M 10.000217 26.499946 L 15.000326 26.499946 M 15.999404 26.499946 L 18.000706 26.499946 M 18.999784 26.499946 L 27.000272 26.499946 " stroke="#000000" stroke-width="1" stroke-opacity="1" stroke-miterlimit="4"/></svg>